<svg width="244" height="47" viewBox="0 0 244 47" fill="none" xmlns="http://www.w3.org/2000/svg">
<path d="M7.594 0C3.40012 0 0.00174454 3.39517 0 7.58511C0.00174454 11.7733 3.39837 15.1685 7.594 15.1702H19.1167L3.47688 30.7953C1.99401 32.2751 1.25084 34.2219 1.25258 36.1617C1.25084 38.0998 1.99576 40.0467 3.47688 41.5264C4.95799 43.0079 6.90665 43.7503 8.84833 43.7503C10.7883 43.7521 12.7369 43.0079 14.2198 41.5264L40.6566 15.111V37.4898C40.6566 38.363 40.306 39.1473 39.732 39.719C39.158 40.2907 38.3748 40.6427 37.5007 40.6427C36.625 40.6427 35.8417 40.2907 35.2677 39.719C34.6955 39.1456 34.3448 38.363 34.3448 37.4898V28.5017C34.3483 27.8464 34.064 27.259 33.6418 26.8686C33.2196 26.4764 32.6701 26.2586 32.0909 26.2568C31.5396 26.2533 30.9552 26.4712 30.5138 26.9174C30.0934 27.3374 29.8561 27.9074 29.8561 28.5017V37.4131C29.8579 41.6031 33.2563 45 37.4519 45C41.6458 45 45.0441 41.6031 45.0459 37.4114L45.0441 10.2448C45.0476 9.57376 44.758 8.97421 44.3254 8.57508C43.8945 8.17421 43.3293 7.95112 42.7396 7.95112C42.1761 7.94589 41.5812 8.17073 41.1294 8.62562L11.097 38.6262C10.4446 39.2798 9.59499 39.6022 8.73842 39.6022C7.88185 39.6022 7.03226 39.2781 6.37805 38.6262C5.72385 37.9726 5.40111 37.1256 5.40111 36.2681C5.40285 35.4123 5.7256 34.5635 6.37805 33.9117L25.7076 14.5968C26.1647 14.1471 26.3862 13.5493 26.3827 12.9881C26.381 12.3973 26.1577 11.8343 25.7565 11.4021C25.357 10.9716 24.7568 10.6822 24.0852 10.684H7.52422C6.64846 10.6822 5.86342 10.3319 5.28946 9.76025C4.71551 9.1851 4.36485 8.40079 4.36311 7.52585C4.36485 6.65092 4.71551 5.86661 5.28946 5.29494C5.86342 4.72152 6.64846 4.36946 7.52422 4.36946H34.9205C36.1278 4.36771 37.1065 3.39169 37.1082 2.18386C37.1082 0.977768 36.1295 0 34.9223 0H7.594Z" fill="url(#paint0_linear_1_301)"/>
<path d="M66.4297 21.0486V21.443C66.4297 24.4528 66.435 27.4625 66.4257 30.4723C66.4231 31.3074 66.5635 32.0923 67.1093 32.8044H61.7982L61.7902 32.7607C62.2778 32.0791 62.4208 31.3127 62.4195 30.4842C62.4076 23.7328 62.4089 16.9827 62.4155 10.2312C62.4169 9.20284 62.4553 8.17842 61.72 7.27576H67.0417C66.8722 7.68341 66.6748 8.08312 66.5449 8.50401C66.4575 8.78725 66.4337 9.10093 66.4323 9.40005C66.4244 13.0478 66.427 16.6941 66.4284 20.3418C66.4284 20.4332 66.4376 20.5258 66.4443 20.6383H76.2027C76.2093 20.5285 76.2186 20.4173 76.2186 20.3074C76.2199 16.6915 76.2133 13.0755 76.2239 9.45961C76.2266 8.67078 76.0305 7.95871 75.5483 7.28105H80.8673L80.8753 7.32738C80.3533 8.06989 80.2288 8.90769 80.2301 9.79447C80.2394 16.6081 80.2394 23.4217 80.2314 30.2354C80.2301 31.1486 80.3069 32.0274 80.9256 32.8097H75.6489C75.8198 32.357 76.0066 31.9004 76.159 31.4332C76.2199 31.2399 76.2173 31.0215 76.2173 30.8138C76.2213 27.6465 76.2199 24.4806 76.2199 21.3146C76.2199 21.2326 76.212 21.1518 76.2067 21.0499H66.4297V21.0486Z" fill="white"/>
<path d="M94.2399 20.9732C94.1617 19.6126 94.1749 18.2692 93.9855 16.9536C93.7629 15.3997 92.768 14.6175 91.1902 14.5659C90.7212 14.55 90.2416 14.5765 89.7846 14.6651C88.9155 14.8346 88.318 15.36 88.0941 16.2283C87.9325 16.8596 87.8331 17.5081 87.7007 18.1487C87.5231 19.0104 87.074 19.5808 86.144 19.7317C84.6192 19.9792 83.5766 18.8052 84.0442 17.3255C84.2482 16.6796 84.6536 16.1727 85.1796 15.7584C86.2421 14.9193 87.494 14.5447 88.8016 14.3594C90.6059 14.1053 92.4077 14.1053 94.1908 14.5645C96.3622 15.1257 97.7916 16.6994 98.0924 18.9389C98.1944 19.7012 98.25 20.4768 98.2553 21.2471C98.2739 23.975 98.2619 26.7028 98.2633 29.4307C98.2646 30.5755 98.1255 31.7482 98.9561 32.7501C97.7334 32.7501 96.5821 32.7938 95.4362 32.7329C94.7936 32.6985 94.3141 32.1135 94.1882 31.4332C94.1683 31.3233 94.1604 31.2108 94.1379 31.0401C93.4158 32.2326 92.3865 32.946 91.0749 33.0863C89.1791 33.2901 87.2993 33.1511 85.5452 32.2961C84.3622 31.7204 83.6561 30.7516 83.3567 29.4809C83.0877 28.3414 83.0626 27.1952 83.3275 26.0543C83.7475 24.2476 84.8974 23.0498 86.5428 22.2782C88.1087 21.5436 89.7806 21.2485 91.4856 21.1121C92.3613 21.042 93.237 21.0208 94.2399 20.9732ZM94.167 21.3186C92.9734 21.3027 91.8393 21.3795 90.7305 21.6813C89.1487 22.1101 88.0173 23.0419 87.5947 24.6672C87.4225 25.3343 87.3324 26.0305 87.2847 26.7187C87.1919 28.0846 87.2489 29.4479 87.7099 30.7555C88.2915 32.41 89.725 33.1472 91.4061 32.6641C92.9985 32.2075 94.2372 30.5636 94.1869 29.0256C94.1074 26.6155 94.1657 24.2013 94.1657 21.7872V21.3186H94.167Z" fill="white"/>
<path d="M130.706 23.2867H119.578C119.643 23.8823 119.687 24.4369 119.77 24.9848C119.989 26.4209 120.379 27.7987 121.252 28.9938C122.352 30.4974 123.877 31.1062 125.696 31.0493C127.374 30.9964 128.707 30.1625 129.929 29.1037C130.184 28.8813 130.424 28.6405 130.67 28.4075L130.763 28.4512C130.566 28.9065 130.404 29.3803 130.164 29.8131C129.47 31.0678 128.417 31.9348 127.082 32.4284C125.105 33.159 123.075 33.2557 121.059 32.6482C118.662 31.9268 117.128 30.2433 116.279 27.9482C115.083 24.7175 115.064 21.4668 116.549 18.3247C117.783 15.716 119.963 14.3713 122.821 14.0946C124.289 13.9517 125.705 14.1211 127.014 14.8385C128.637 15.7292 129.551 17.1825 130.117 18.8859C130.575 20.2664 130.743 21.6931 130.742 23.1424C130.745 23.1782 130.726 23.2152 130.706 23.2867ZM122.136 22.8751V22.8512C122.845 22.8512 123.555 22.8777 124.262 22.8446C125.649 22.7798 126.672 22.0081 127.088 20.6767C127.615 18.9891 127.304 17.4101 126.326 15.9622C124.877 13.8141 121.776 13.7704 120.546 16.4082C119.634 18.3671 119.565 20.4583 119.557 22.5601C119.555 22.8168 119.687 22.883 119.929 22.879C120.666 22.8671 121.401 22.8751 122.136 22.8751Z" fill="white"/>
<path d="M142.996 30.6748C142.168 31.7283 141.218 32.4404 140.029 32.7964C138.934 33.122 137.824 33.0956 136.731 32.7779C135.128 32.3107 134.369 31.1261 134.116 29.567C134.014 28.9356 133.973 28.2897 133.972 27.6492C133.96 23.4006 133.967 19.1506 133.967 14.9021V14.3965C133.219 14.3965 132.515 14.4031 131.81 14.3898C131.691 14.3872 131.573 14.3025 131.453 14.2548C131.526 14.1476 131.575 13.9954 131.676 13.9385C133.756 12.8016 135.842 11.6752 137.928 10.5463C137.971 10.5238 138.019 10.5079 138.109 10.4695V14.0378H138.56C139.937 14.0378 141.316 14.0364 142.694 14.0417C142.8 14.0431 142.976 14.0669 143 14.1278C143.102 14.3832 142.917 14.3965 142.727 14.3965C141.375 14.3938 140.023 14.3951 138.671 14.3951H138.121V14.8504C138.121 18.9561 138.11 23.0604 138.133 27.1647C138.137 27.8252 138.218 28.5015 138.383 29.1408C138.687 30.3187 139.611 31.0189 140.836 31.0229C141.389 31.0242 141.946 30.8852 142.5 30.8045C142.633 30.7833 142.766 30.7357 142.996 30.6748Z" fill="white"/>
<path d="M109.765 27.6452C110.221 26.7213 110.646 25.8862 111.048 25.0391C111.893 23.2496 112.678 21.4311 113.014 19.4683C113.15 18.6635 113.191 17.8218 113.126 17.0104C113.039 15.9106 112.458 15.0463 111.399 14.4269H116.91C113.762 20.6184 110.626 26.7848 107.455 33.0227C106.97 31.7826 106.514 30.6205 106.061 29.4597C104.372 25.1344 102.696 20.8037 100.982 16.4876C100.735 15.8656 100.31 15.3136 99.9629 14.7313C99.906 14.636 99.8278 14.5513 99.7258 14.4176H105.514C105.428 14.767 105.297 15.1125 105.273 15.4632C105.252 15.7795 105.289 16.1276 105.401 16.4215C106.802 20.0731 108.222 23.7182 109.637 27.3646C109.66 27.4241 109.691 27.4824 109.765 27.6452Z" fill="white"/>
<path d="M148.204 6.57449H152.355C153.917 6.57449 155.478 6.60426 157.039 6.56787C159.234 6.51605 161.122 7.29118 162.804 8.62643C165.376 10.6685 166.875 13.3731 167.481 16.5597C168.103 19.8267 167.889 23.0518 166.591 26.1435C165.35 29.0952 163.309 31.2827 160.253 32.4228C159.381 32.7481 158.472 32.908 157.536 32.9069C154.554 32.9035 151.572 32.9057 148.59 32.9057H148.312C148.493 32.4228 148.692 31.9553 148.841 31.4724C148.912 31.243 148.905 30.9839 148.905 30.738C148.908 23.4344 148.904 16.1307 148.912 8.82711C148.913 8.0167 148.701 7.28787 148.204 6.57449ZM153.065 6.88432V32.5695C153.912 32.5695 154.739 32.5684 155.564 32.5706C157.442 32.5728 159.015 31.8693 160.311 30.5263C161.63 29.1602 162.416 27.4997 162.906 25.6958C163.794 22.4288 163.906 19.1199 163.281 15.7978C162.867 13.6014 162.074 11.5461 160.675 9.76542C159.683 8.50184 158.498 7.43452 156.886 7.14012C155.651 6.91409 154.366 6.96151 153.065 6.88432Z" fill="white"/>
<path d="M242.408 4.16858C242.414 4.35823 242.426 4.54787 242.426 4.73752C242.428 12.9618 242.43 21.1873 242.423 29.4116C242.422 30.4877 242.403 31.5583 243.164 32.5088C241.949 32.5088 240.811 32.5485 239.677 32.4956C238.85 32.457 238.284 31.7987 238.192 30.9232C238.174 30.7623 238.18 30.598 238.18 30.4359C238.178 22.8632 238.173 15.2894 238.186 7.71565C238.188 6.81041 238.062 5.96251 237.48 5.18738C237.607 5.14107 237.696 5.09366 237.792 5.07492C239.228 4.79486 240.665 4.51921 242.102 4.23914L242.244 4.16968H242.408V4.16858Z" fill="white"/>
<path d="M185.102 35.5806C187.101 35.4748 188.966 34.7889 190.877 34.2906C191.865 34.0337 192.898 33.8826 193.918 33.8363C195.47 33.7646 196.279 34.9378 195.778 36.4131C195.37 37.6138 194.468 38.3812 193.416 38.9954C192.084 39.7738 190.617 40.1564 189.1 40.3339C188.171 40.442 187.234 40.474 186.733 40.5093C184.65 40.4266 183.016 40.27 181.521 39.5004C181.094 39.281 180.686 38.9844 180.347 38.6459C179.651 37.9545 179.568 37.0305 180.058 36.1848C180.147 36.0327 180.247 35.8871 180.358 35.7504C180.901 35.0767 180.902 35.0778 181.714 35.3436C182.399 35.5674 183.095 35.628 183.795 35.628C184.23 35.6269 184.666 35.6038 185.102 35.5806ZM186.207 27.4611C185.124 26.9461 184.512 26.0177 184.097 24.9361C183.533 23.4696 183.426 21.9315 183.407 20.3493C183.431 18.6513 183.567 16.9411 184.348 15.3534C185.438 13.1438 187.982 12.3863 189.888 13.716C190.844 14.3842 191.358 15.3622 191.686 16.4472C192.227 18.2268 192.256 20.0516 192.131 21.8852C192.045 23.1488 191.811 24.3826 191.245 25.5315C190.523 26.998 189.209 27.8326 187.809 27.8326C187.279 27.8326 186.734 27.7124 186.207 27.4611ZM195.123 10.9308C194.097 11.6497 193.248 12.5076 193.212 13.92C192.904 13.78 192.628 13.6366 192.34 13.5264C189.602 12.4833 186.815 12.4535 184.03 13.2518C182.025 13.8263 180.51 15.0513 179.736 17.0426C179.065 18.7714 179.014 20.5621 179.344 22.3681C179.698 24.3043 180.658 25.849 182.371 26.8844L182.439 26.9869C180.417 27.1964 179.151 28.2891 178.746 30.2363C178.352 32.1317 179.018 33.6864 180.587 34.8386C180.43 34.961 180.297 35.0547 180.175 35.1616C178.697 36.4572 178.776 38.3823 180.356 39.5467C181.078 40.0792 181.903 40.3913 182.769 40.5798C185.641 41.2028 188.516 41.151 191.369 40.4828C193.137 40.0682 194.76 39.3251 196.038 37.9821C197.254 36.7053 197.882 35.1903 197.593 33.4206C197.206 31.05 195.327 29.5648 192.861 29.5957C191.53 29.6122 190.252 29.8967 189.008 30.3543C187.198 31.0214 185.346 31.4503 183.401 31.3808C182.777 31.3588 182.189 31.2143 181.682 30.8405C181.012 30.3455 180.699 29.674 180.872 28.8503C181.037 28.0598 181.599 27.579 182.372 27.5052C182.95 27.45 183.568 27.5283 184.134 27.6761C186.524 28.2979 188.913 28.3707 191.292 27.6981C193.755 27.0013 195.463 25.483 196.123 22.9503C196.588 21.1696 196.569 19.3757 196.066 17.6038C195.729 16.4174 195.099 15.3997 194.137 14.6047C193.669 14.2188 193.613 14.0314 193.843 13.4657C193.914 13.2915 194.001 13.1173 194.112 12.9673C194.905 11.9088 195.977 11.2594 197.259 11.0279C198.798 10.7489 199.675 11.4259 199.917 12.9651C199.978 13.34 200.024 13.7171 200.096 14.0887C200.308 15.1924 200.799 15.661 201.865 15.79C203.169 15.9488 204.314 15.2288 204.536 14.0666C204.715 13.1338 204.388 12.3278 203.772 11.6354C202.933 10.6894 201.828 10.2318 200.619 9.99031C200.006 9.86792 199.4 9.79956 198.805 9.79956C197.511 9.80287 196.272 10.127 195.123 10.9308Z" fill="url(#paint1_linear_1_301)"/>
<path d="M230.659 20.2434C230.58 18.8431 230.594 17.4527 230.399 16.0943C230.167 14.479 229.142 13.673 227.515 13.6091C227.123 13.5936 226.722 13.587 226.336 13.6521C225.014 13.8748 224.39 14.5386 224.141 15.9102C224.042 16.456 223.961 17.0073 223.821 17.5432C223.512 18.7185 222.42 19.2731 221.202 18.9027C220.231 18.6083 219.76 17.5376 220.117 16.4416C220.332 15.7878 220.742 15.2751 221.274 14.8539C222.372 13.9828 223.668 13.5925 225.021 13.4007C226.888 13.136 228.753 13.1338 230.599 13.6102C232.858 14.1934 234.331 15.8088 234.647 18.1275C234.754 18.917 234.812 19.7197 234.818 20.5169C234.838 23.4619 234.826 26.4081 234.826 29.3531C234.826 31.0214 234.826 31.0214 235.499 32.4856H234.516C233.878 32.4856 233.239 32.4878 232.6 32.4856C231.308 32.4812 230.748 31.9983 230.548 30.6763C229.896 31.7756 228.954 32.4658 227.754 32.7095C227.045 32.8528 226.297 32.8528 225.569 32.8363C224.4 32.8076 223.248 32.6334 222.148 32.1956C220.647 31.5991 219.71 30.5208 219.367 28.9441C219.118 27.8029 219.098 26.6551 219.361 25.5139C219.796 23.645 220.982 22.4012 222.683 21.5985C224.304 20.8366 226.034 20.5301 227.799 20.389C228.706 20.3151 229.614 20.2941 230.659 20.2434ZM230.585 20.6007C229.243 20.5963 227.957 20.6801 226.701 21.0825C225.186 21.5677 224.177 22.549 223.776 24.086C223.601 24.7619 223.512 25.4709 223.464 26.1699C223.364 27.5978 223.426 29.0202 223.907 30.3885C224.389 31.7579 225.298 32.4195 226.701 32.4702C228.932 32.5496 230.657 30.3311 230.606 28.7258C230.528 26.1754 230.585 23.6218 230.585 21.0693V20.6007V20.6007Z" fill="white"/>
<path d="M212.413 13.4359C212.405 13.609 212.394 13.7413 212.394 13.8737C212.393 18.1496 212.383 22.4254 212.404 26.7024C212.407 27.3596 212.492 28.0311 212.657 28.6662C212.98 29.9198 213.919 30.6211 215.211 30.6542C215.574 30.663 215.943 30.6288 216.302 30.5715C216.646 30.5175 216.981 30.4061 217.343 30.3146L217.324 30.427C215.51 32.7513 212.655 33.2365 210.347 32.221C209.027 31.6399 208.462 30.4778 208.249 29.1304C208.146 28.4765 208.102 27.8073 208.1 27.1457C208.088 22.7606 208.093 18.3756 208.093 13.9905V13.4348H206.587C206.301 13.4348 206.016 13.4459 205.731 13.4271C205.648 13.4216 205.516 13.3422 205.504 13.2794C205.49 13.1989 205.567 13.0952 205.621 13.0125L205.76 12.932C207.882 11.782 210.004 10.6309 212.126 9.48089C212.193 9.4445 212.267 9.41694 212.386 9.36401V13.0655H212.854C214.227 13.0655 215.599 13.0599 216.972 13.0732C217.14 13.0754 217.45 13.1823 217.45 13.2408C217.449 13.5848 217.154 13.426 216.991 13.4271C215.618 13.4414 214.246 13.4359 212.873 13.4359H212.413V13.4359Z" fill="white"/>
<path d="M175.791 32.5044H170.147C170.207 32.393 170.254 32.3048 170.305 32.2188C170.621 31.6852 170.814 31.1162 170.813 30.4877C170.812 25.752 170.811 23.6395 170.816 18.9049C170.816 18.1617 170.54 17.5134 170.114 16.8596C171.779 16.5343 173.394 16.2189 175.06 15.8937V16.4119C175.06 21.8124 175.065 24.5899 175.056 29.9893C175.055 30.8791 175.198 31.7149 175.791 32.5044Z" fill="white"/>
<path d="M205.427 32.5065H199.768C199.823 32.4062 199.859 32.3246 199.906 32.2518C200.296 31.6531 200.446 30.9904 200.446 30.2825C200.443 26.7685 200.442 23.2534 200.447 19.7395C200.448 18.9412 200.242 18.2157 199.722 17.5078C201.393 17.1803 203.014 16.8628 204.7 16.5331V17.048C204.7 21.3349 204.706 25.6229 204.694 29.911C204.691 30.825 204.786 31.6972 205.427 32.5065Z" fill="white"/>
<path d="M172.967 9.80286C174.46 9.80396 175.695 11.0334 175.697 12.5186C175.699 13.9983 174.455 15.2453 172.973 15.2519C171.452 15.2585 170.213 14.0368 170.211 12.5263C170.209 11.0113 171.434 9.80175 172.967 9.80286Z" fill="white"/>
<path d="M62.7188 45H64.6523C65.2122 45 65.6901 44.8893 66.0859 44.668C66.4818 44.444 66.7852 44.1224 66.9961 43.7031C67.207 43.2812 67.3125 42.7747 67.3125 42.1836V42.1758C67.3125 41.5846 67.207 41.0794 66.9961 40.6602C66.7852 40.2409 66.4805 39.9206 66.082 39.6992C65.6862 39.4753 65.2096 39.3633 64.6523 39.3633H62.7188V45ZM63.4219 44.3672V39.9961H64.6055C65.0221 39.9961 65.3789 40.0833 65.6758 40.2578C65.9727 40.4297 66.1992 40.6797 66.3555 41.0078C66.5143 41.3333 66.5938 41.7253 66.5938 42.1836V42.1914C66.5938 42.6471 66.5156 43.0378 66.3594 43.3633C66.2031 43.6888 65.9766 43.9375 65.6797 44.1094C65.3828 44.2812 65.0247 44.3672 64.6055 44.3672H63.4219ZM70.1641 45.0742C70.4115 45.0742 70.6341 45.043 70.832 44.9805C71.0326 44.9154 71.2057 44.8294 71.3516 44.7227C71.4974 44.6133 71.6159 44.4922 71.707 44.3594C71.8008 44.224 71.8659 44.0846 71.9023 43.9414L71.9102 43.9102H71.2305L71.2148 43.9453C71.1784 44.0286 71.1146 44.1107 71.0234 44.1914C70.9323 44.2721 70.8164 44.3385 70.6758 44.3906C70.5352 44.4427 70.3698 44.4688 70.1797 44.4688C69.9245 44.4688 69.7031 44.4128 69.5156 44.3008C69.3281 44.1862 69.1836 44.0234 69.082 43.8125C68.9805 43.599 68.9297 43.3424 68.9297 43.043V42.7734C68.9297 42.4583 68.9818 42.1927 69.0859 41.9766C69.1901 41.7604 69.3307 41.5977 69.5078 41.4883C69.6875 41.3763 69.8906 41.3203 70.1172 41.3203C70.3438 41.3203 70.5443 41.3737 70.7188 41.4805C70.8932 41.5846 71.0299 41.7435 71.1289 41.957C71.2279 42.1706 71.2773 42.4427 71.2773 42.7734V43.043L71.6133 42.5469H68.5859V43.0898H71.9609V42.8242C71.9609 42.4049 71.8867 42.0378 71.7383 41.7227C71.5924 41.4049 71.3815 41.1576 71.1055 40.9805C70.832 40.8034 70.5039 40.7148 70.1211 40.7148C69.7409 40.7148 69.4089 40.8073 69.125 40.9922C68.8411 41.1771 68.6211 41.4336 68.4648 41.7617C68.3112 42.0898 68.2344 42.4714 68.2344 42.9062V42.9102C68.2344 43.3503 68.3112 43.7331 68.4648 44.0586C68.6211 44.3815 68.8424 44.6315 69.1289 44.8086C69.418 44.9857 69.763 45.0742 70.1641 45.0742ZM70.3906 40.2031L71.293 38.875H70.4883L69.7969 40.2031H70.3906ZM74.207 45H74.8945L76.4531 40.7891H75.7344L74.582 44.2578H74.5195L73.3672 40.7891H72.6484L74.207 45ZM78.9141 45.0742C79.1615 45.0742 79.3841 45.043 79.582 44.9805C79.7826 44.9154 79.9557 44.8294 80.1016 44.7227C80.2474 44.6133 80.3659 44.4922 80.457 44.3594C80.5508 44.224 80.6159 44.0846 80.6523 43.9414L80.6602 43.9102H79.9805L79.9648 43.9453C79.9284 44.0286 79.8646 44.1107 79.7734 44.1914C79.6823 44.2721 79.5664 44.3385 79.4258 44.3906C79.2852 44.4427 79.1198 44.4688 78.9297 44.4688C78.6745 44.4688 78.4531 44.4128 78.2656 44.3008C78.0781 44.1862 77.9336 44.0234 77.832 43.8125C77.7305 43.599 77.6797 43.3424 77.6797 43.043V42.7734C77.6797 42.4583 77.7318 42.1927 77.8359 41.9766C77.9401 41.7604 78.0807 41.5977 78.2578 41.4883C78.4375 41.3763 78.6406 41.3203 78.8672 41.3203C79.0938 41.3203 79.2943 41.3737 79.4688 41.4805C79.6432 41.5846 79.7799 41.7435 79.8789 41.957C79.9779 42.1706 80.0273 42.4427 80.0273 42.7734V43.043L80.3633 42.5469H77.3359V43.0898H80.7109V42.8242C80.7109 42.4049 80.6367 42.0378 80.4883 41.7227C80.3424 41.4049 80.1315 41.1576 79.8555 40.9805C79.582 40.8034 79.2539 40.7148 78.8711 40.7148C78.4909 40.7148 78.1589 40.8073 77.875 40.9922C77.5911 41.1771 77.3711 41.4336 77.2148 41.7617C77.0612 42.0898 76.9844 42.4714 76.9844 42.9062V42.9102C76.9844 43.3503 77.0612 43.7331 77.2148 44.0586C77.3711 44.3815 77.5924 44.6315 77.8789 44.8086C78.168 44.9857 78.513 45.0742 78.9141 45.0742ZM81.8047 45H82.4844V39.1172H81.8047V45ZM85.5195 45.0742C85.9206 45.0742 86.2656 44.987 86.5547 44.8125C86.8438 44.6354 87.0664 44.3841 87.2227 44.0586C87.3815 43.7331 87.4609 43.3464 87.4609 42.8984V42.8906C87.4609 42.4401 87.3815 42.0521 87.2227 41.7266C87.0664 41.401 86.8438 41.151 86.5547 40.9766C86.2656 40.8021 85.9206 40.7148 85.5195 40.7148C85.1211 40.7148 84.776 40.8021 84.4844 40.9766C84.1953 41.151 83.9714 41.401 83.8125 41.7266C83.6562 42.0521 83.5781 42.4401 83.5781 42.8906V42.8984C83.5781 43.3464 83.6562 43.7331 83.8125 44.0586C83.9714 44.3841 84.1953 44.6354 84.4844 44.8125C84.776 44.987 85.1211 45.0742 85.5195 45.0742ZM85.5195 44.4727C85.2539 44.4727 85.0286 44.4102 84.8438 44.2852C84.6589 44.1602 84.5169 43.9805 84.418 43.7461C84.3216 43.5117 84.2734 43.2292 84.2734 42.8984V42.8906C84.2734 42.5573 84.3216 42.2734 84.418 42.0391C84.5169 41.8047 84.6589 41.6263 84.8438 41.5039C85.0286 41.3789 85.2539 41.3164 85.5195 41.3164C85.7852 41.3164 86.0104 41.3789 86.1953 41.5039C86.3802 41.6263 86.5208 41.8047 86.6172 42.0391C86.7161 42.2734 86.7656 42.5573 86.7656 42.8906V42.8984C86.7656 43.2292 86.7161 43.5117 86.6172 43.7461C86.5208 43.9805 86.3802 44.1602 86.1953 44.2852C86.0104 44.4102 85.7852 44.4727 85.5195 44.4727ZM88.5156 46.4062H89.1953V44.3359H89.2578C89.3359 44.487 89.4401 44.6172 89.5703 44.7266C89.7031 44.8359 89.8542 44.9219 90.0234 44.9844C90.1953 45.0443 90.3776 45.0742 90.5703 45.0742C90.9271 45.0742 91.237 44.9844 91.5 44.8047C91.7656 44.625 91.9714 44.3724 92.1172 44.0469C92.263 43.7214 92.3359 43.3385 92.3359 42.8984V42.8906C92.3359 42.4531 92.263 42.0716 92.1172 41.7461C91.9714 41.4206 91.7656 41.168 91.5 40.9883C91.237 40.806 90.9271 40.7148 90.5703 40.7148C90.375 40.7148 90.194 40.7448 90.0273 40.8047C89.8607 40.8646 89.7122 40.9505 89.582 41.0625C89.4518 41.1719 89.3438 41.3047 89.2578 41.4609H89.1953V40.7891H88.5156V46.4062ZM90.4141 44.4727C90.1589 44.4727 89.9388 44.4089 89.7539 44.2812C89.569 44.1536 89.4271 43.9727 89.3281 43.7383C89.2292 43.5013 89.1797 43.2214 89.1797 42.8984V42.8906C89.1797 42.5651 89.2292 42.2852 89.3281 42.0508C89.4271 41.8164 89.569 41.6354 89.7539 41.5078C89.9388 41.3802 90.1589 41.3164 90.4141 41.3164C90.6719 41.3164 90.8919 41.3802 91.0742 41.5078C91.2565 41.6328 91.3958 41.8125 91.4922 42.0469C91.5911 42.2812 91.6406 42.5625 91.6406 42.8906V42.8984C91.6406 43.224 91.5911 43.5052 91.4922 43.7422C91.3958 43.9766 91.2565 44.1576 91.0742 44.2852C90.8919 44.4102 90.6719 44.4727 90.4141 44.4727ZM93.3984 46.4062H94.0781V44.3359H94.1406C94.2188 44.487 94.3229 44.6172 94.4531 44.7266C94.5859 44.8359 94.737 44.9219 94.9062 44.9844C95.0781 45.0443 95.2604 45.0742 95.4531 45.0742C95.8099 45.0742 96.1198 44.9844 96.3828 44.8047C96.6484 44.625 96.8542 44.3724 97 44.0469C97.1458 43.7214 97.2188 43.3385 97.2188 42.8984V42.8906C97.2188 42.4531 97.1458 42.0716 97 41.7461C96.8542 41.4206 96.6484 41.168 96.3828 40.9883C96.1198 40.806 95.8099 40.7148 95.4531 40.7148C95.2578 40.7148 95.0768 40.7448 94.9102 40.8047C94.7435 40.8646 94.5951 40.9505 94.4648 41.0625C94.3346 41.1719 94.2266 41.3047 94.1406 41.4609H94.0781V40.7891H93.3984V46.4062ZM95.2969 44.4727C95.0417 44.4727 94.8216 44.4089 94.6367 44.2812C94.4518 44.1536 94.3099 43.9727 94.2109 43.7383C94.112 43.5013 94.0625 43.2214 94.0625 42.8984V42.8906C94.0625 42.5651 94.112 42.2852 94.2109 42.0508C94.3099 41.8164 94.4518 41.6354 94.6367 41.5078C94.8216 41.3802 95.0417 41.3164 95.2969 41.3164C95.5547 41.3164 95.7747 41.3802 95.957 41.5078C96.1393 41.6328 96.2786 41.8125 96.375 42.0469C96.474 42.2812 96.5234 42.5625 96.5234 42.8906V42.8984C96.5234 43.224 96.474 43.5052 96.375 43.7422C96.2786 43.9766 96.1393 44.1576 95.957 44.2852C95.7747 44.4102 95.5547 44.4727 95.2969 44.4727ZM100 45.0742C100.247 45.0742 100.47 45.043 100.668 44.9805C100.868 44.9154 101.042 44.8294 101.188 44.7227C101.333 44.6133 101.452 44.4922 101.543 44.3594C101.637 44.224 101.702 44.0846 101.738 43.9414L101.746 43.9102H101.066L101.051 43.9453C101.014 44.0286 100.951 44.1107 100.859 44.1914C100.768 44.2721 100.652 44.3385 100.512 44.3906C100.371 44.4427 100.206 44.4688 100.016 44.4688C99.7604 44.4688 99.5391 44.4128 99.3516 44.3008C99.1641 44.1862 99.0195 44.0234 98.918 43.8125C98.8164 43.599 98.7656 43.3424 98.7656 43.043V42.7734C98.7656 42.4583 98.8177 42.1927 98.9219 41.9766C99.026 41.7604 99.1667 41.5977 99.3438 41.4883C99.5234 41.3763 99.7266 41.3203 99.9531 41.3203C100.18 41.3203 100.38 41.3737 100.555 41.4805C100.729 41.5846 100.866 41.7435 100.965 41.957C101.064 42.1706 101.113 42.4427 101.113 42.7734V43.043L101.449 42.5469H98.4219V43.0898H101.797V42.8242C101.797 42.4049 101.723 42.0378 101.574 41.7227C101.428 41.4049 101.217 41.1576 100.941 40.9805C100.668 40.8034 100.34 40.7148 99.957 40.7148C99.5768 40.7148 99.2448 40.8073 98.9609 40.9922C98.6771 41.1771 98.457 41.4336 98.3008 41.7617C98.1471 42.0898 98.0703 42.4714 98.0703 42.9062V42.9102C98.0703 43.3503 98.1471 43.7331 98.3008 44.0586C98.457 44.3815 98.6784 44.6315 98.9648 44.8086C99.2539 44.9857 99.599 45.0742 100 45.0742ZM104.262 45.0742C104.572 45.0742 104.831 45.013 105.039 44.8906C105.25 44.7682 105.408 44.5951 105.512 44.3711H105.574V45H106.254V40.7891H105.574V43.2812C105.574 43.526 105.531 43.7383 105.445 43.918C105.359 44.0951 105.232 44.2318 105.062 44.3281C104.893 44.4245 104.685 44.4727 104.438 44.4727C104.102 44.4727 103.859 44.3802 103.711 44.1953C103.565 44.0104 103.492 43.7292 103.492 43.3516V40.7891H102.812V43.5156C102.812 43.8464 102.866 44.1289 102.973 44.3633C103.082 44.5951 103.245 44.7721 103.461 44.8945C103.677 45.0143 103.944 45.0742 104.262 45.0742ZM107.523 45H108.203V42.3906C108.203 42.1849 108.25 42.0052 108.344 41.8516C108.44 41.6979 108.572 41.5781 108.738 41.4922C108.905 41.4062 109.096 41.3633 109.312 41.3633C109.388 41.3633 109.458 41.3672 109.523 41.375C109.591 41.3802 109.66 41.3893 109.73 41.4023V40.7422C109.697 40.737 109.647 40.7318 109.582 40.7266C109.52 40.7188 109.456 40.7148 109.391 40.7148C109.107 40.7148 108.868 40.776 108.676 40.8984C108.483 41.0208 108.346 41.1927 108.266 41.4141H108.203V40.7891H107.523V45ZM114.375 45.0742C114.669 45.0742 114.93 45.0091 115.156 44.8789C115.383 44.7461 115.56 44.5625 115.688 44.3281H115.75V45H116.43V39.1172H115.75V41.4531H115.688C115.573 41.2292 115.397 41.0508 115.16 40.918C114.926 40.7826 114.664 40.7148 114.375 40.7148C114.018 40.7148 113.707 40.8047 113.441 40.9844C113.178 41.1641 112.974 41.4167 112.828 41.7422C112.682 42.0677 112.609 42.4505 112.609 42.8906V42.8984C112.609 43.3359 112.682 43.7188 112.828 44.0469C112.974 44.3724 113.18 44.625 113.445 44.8047C113.711 44.9844 114.021 45.0742 114.375 45.0742ZM114.531 44.4727C114.276 44.4727 114.056 44.4102 113.871 44.2852C113.689 44.1576 113.548 43.9766 113.449 43.7422C113.353 43.5052 113.305 43.224 113.305 42.8984V42.8906C113.305 42.5625 113.353 42.2812 113.449 42.0469C113.548 41.8125 113.689 41.6328 113.871 41.5078C114.056 41.3802 114.276 41.3164 114.531 41.3164C114.786 41.3164 115.007 41.3802 115.191 41.5078C115.376 41.6354 115.518 41.8164 115.617 42.0508C115.716 42.2852 115.766 42.5651 115.766 42.8906V42.8984C115.766 43.2214 115.716 43.5013 115.617 43.7383C115.518 43.9727 115.376 44.1536 115.191 44.2812C115.007 44.4089 114.786 44.4727 114.531 44.4727ZM119.453 45.0742C119.701 45.0742 119.923 45.043 120.121 44.9805C120.322 44.9154 120.495 44.8294 120.641 44.7227C120.786 44.6133 120.905 44.4922 120.996 44.3594C121.09 44.224 121.155 44.0846 121.191 43.9414L121.199 43.9102H120.52L120.504 43.9453C120.467 44.0286 120.404 44.1107 120.312 44.1914C120.221 44.2721 120.105 44.3385 119.965 44.3906C119.824 44.4427 119.659 44.4688 119.469 44.4688C119.214 44.4688 118.992 44.4128 118.805 44.3008C118.617 44.1862 118.473 44.0234 118.371 43.8125C118.27 43.599 118.219 43.3424 118.219 43.043V42.7734C118.219 42.4583 118.271 42.1927 118.375 41.9766C118.479 41.7604 118.62 41.5977 118.797 41.4883C118.977 41.3763 119.18 41.3203 119.406 41.3203C119.633 41.3203 119.833 41.3737 120.008 41.4805C120.182 41.5846 120.319 41.7435 120.418 41.957C120.517 42.1706 120.566 42.4427 120.566 42.7734V43.043L120.902 42.5469H117.875V43.0898H121.25V42.8242C121.25 42.4049 121.176 42.0378 121.027 41.7227C120.882 41.4049 120.671 41.1576 120.395 40.9805C120.121 40.8034 119.793 40.7148 119.41 40.7148C119.03 40.7148 118.698 40.8073 118.414 40.9922C118.13 41.1771 117.91 41.4336 117.754 41.7617C117.6 42.0898 117.523 42.4714 117.523 42.9062V42.9102C117.523 43.3503 117.6 43.7331 117.754 44.0586C117.91 44.3815 118.132 44.6315 118.418 44.8086C118.707 44.9857 119.052 45.0742 119.453 45.0742ZM124.992 45H126.84C127.241 45 127.583 44.9375 127.867 44.8125C128.151 44.6849 128.368 44.5039 128.52 44.2695C128.673 44.0326 128.75 43.75 128.75 43.4219V43.4141C128.75 43.1667 128.698 42.9466 128.594 42.7539C128.492 42.5586 128.348 42.3997 128.16 42.2773C127.973 42.1549 127.75 42.0781 127.492 42.0469V41.9844C127.674 41.9505 127.839 41.875 127.984 41.7578C128.13 41.6406 128.246 41.4961 128.332 41.3242C128.421 41.1523 128.465 40.9688 128.465 40.7734V40.7656C128.465 40.4792 128.397 40.2318 128.262 40.0234C128.129 39.8125 127.938 39.6497 127.688 39.5352C127.44 39.4206 127.143 39.3633 126.797 39.3633H124.992V39.9844H126.648C126.997 39.9844 127.268 40.0638 127.461 40.2227C127.656 40.3789 127.754 40.6003 127.754 40.8867V40.8945C127.754 41.1914 127.646 41.4154 127.43 41.5664C127.216 41.7174 126.896 41.793 126.469 41.793H124.992V42.3984H126.668C126.967 42.3984 127.217 42.4349 127.418 42.5078C127.621 42.5807 127.773 42.6901 127.875 42.8359C127.977 42.9818 128.027 43.1628 128.027 43.3789V43.3867C128.027 43.7096 127.918 43.9557 127.699 44.125C127.48 44.2943 127.159 44.3789 126.734 44.3789H124.992V45ZM124.641 45H125.344V39.3633H124.641V45ZM131.223 45.0742C131.533 45.0742 131.792 45.013 132 44.8906C132.211 44.7682 132.368 44.5951 132.473 44.3711H132.535V45H133.215V40.7891H132.535V43.2812C132.535 43.526 132.492 43.7383 132.406 43.918C132.32 44.0951 132.193 44.2318 132.023 44.3281C131.854 44.4245 131.646 44.4727 131.398 44.4727C131.062 44.4727 130.82 44.3802 130.672 44.1953C130.526 44.0104 130.453 43.7292 130.453 43.3516V40.7891H129.773V43.5156C129.773 43.8464 129.827 44.1289 129.934 44.3633C130.043 44.5951 130.206 44.7721 130.422 44.8945C130.638 45.0143 130.905 45.0742 131.223 45.0742ZM135.93 45.0742C136.25 45.0742 136.536 45.0208 136.789 44.9141C137.044 44.8073 137.246 44.6589 137.395 44.4688C137.543 44.276 137.617 44.0547 137.617 43.8047V43.7969C137.617 43.4948 137.52 43.2539 137.324 43.0742C137.132 42.8945 136.837 42.7565 136.441 42.6602L135.793 42.5039C135.546 42.444 135.366 42.3672 135.254 42.2734C135.142 42.1797 135.086 42.0612 135.086 41.918V41.9102C135.086 41.7852 135.124 41.6758 135.199 41.582C135.275 41.4883 135.378 41.4154 135.508 41.3633C135.638 41.3086 135.786 41.2812 135.953 41.2812C136.208 41.2812 136.415 41.3333 136.574 41.4375C136.733 41.5417 136.835 41.6771 136.879 41.8438H137.547C137.516 41.6146 137.43 41.4154 137.289 41.2461C137.151 41.0768 136.967 40.9466 136.738 40.8555C136.512 40.7617 136.251 40.7148 135.957 40.7148C135.66 40.7148 135.393 40.7682 135.156 40.875C134.919 40.9818 134.732 41.1276 134.594 41.3125C134.458 41.4974 134.391 41.707 134.391 41.9414V41.9453C134.391 42.2474 134.483 42.4896 134.668 42.6719C134.853 42.8516 135.142 42.9883 135.535 43.082L136.188 43.2383C136.448 43.3008 136.635 43.3828 136.75 43.4844C136.865 43.5833 136.922 43.7044 136.922 43.8477V43.8555C136.922 43.9831 136.88 44.0964 136.797 44.1953C136.714 44.2917 136.599 44.3685 136.453 44.4258C136.31 44.4805 136.143 44.5078 135.953 44.5078C135.685 44.5078 135.467 44.4544 135.301 44.3477C135.134 44.2409 135.022 44.1003 134.965 43.9258H134.27C134.296 44.1576 134.38 44.3594 134.523 44.5312C134.669 44.7031 134.862 44.8372 135.102 44.9336C135.341 45.0273 135.617 45.0742 135.93 45.0742ZM138.688 45H139.367V40.7891H138.688V45ZM139.031 39.9766C139.161 39.9766 139.272 39.931 139.363 39.8398C139.454 39.7461 139.5 39.6354 139.5 39.5078C139.5 39.3776 139.454 39.2669 139.363 39.1758C139.272 39.0846 139.161 39.0391 139.031 39.0391C138.904 39.0391 138.793 39.0846 138.699 39.1758C138.608 39.2669 138.562 39.3776 138.562 39.5078C138.562 39.6354 138.608 39.7461 138.699 39.8398C138.793 39.931 138.904 39.9766 139.031 39.9766ZM140.648 45H141.328V42.5078C141.328 42.2604 141.372 42.0482 141.461 41.8711C141.552 41.694 141.68 41.5573 141.844 41.4609C142.008 41.3646 142.202 41.3164 142.426 41.3164C142.762 41.3164 143.009 41.4089 143.168 41.5938C143.329 41.776 143.41 42.0573 143.41 42.4375V45H144.09V42.2734C144.09 41.7734 143.962 41.3893 143.707 41.1211C143.454 40.8503 143.091 40.7148 142.617 40.7148C142.307 40.7148 142.052 40.7773 141.852 40.9023C141.651 41.0247 141.497 41.1979 141.391 41.4219H141.328V40.7891H140.648V45ZM147.039 45.0742C147.286 45.0742 147.509 45.043 147.707 44.9805C147.908 44.9154 148.081 44.8294 148.227 44.7227C148.372 44.6133 148.491 44.4922 148.582 44.3594C148.676 44.224 148.741 44.0846 148.777 43.9414L148.785 43.9102H148.105L148.09 43.9453C148.053 44.0286 147.99 44.1107 147.898 44.1914C147.807 44.2721 147.691 44.3385 147.551 44.3906C147.41 44.4427 147.245 44.4688 147.055 44.4688C146.799 44.4688 146.578 44.4128 146.391 44.3008C146.203 44.1862 146.059 44.0234 145.957 43.8125C145.855 43.599 145.805 43.3424 145.805 43.043V42.7734C145.805 42.4583 145.857 42.1927 145.961 41.9766C146.065 41.7604 146.206 41.5977 146.383 41.4883C146.562 41.3763 146.766 41.3203 146.992 41.3203C147.219 41.3203 147.419 41.3737 147.594 41.4805C147.768 41.5846 147.905 41.7435 148.004 41.957C148.103 42.1706 148.152 42.4427 148.152 42.7734V43.043L148.488 42.5469H145.461V43.0898H148.836V42.8242C148.836 42.4049 148.762 42.0378 148.613 41.7227C148.467 41.4049 148.257 41.1576 147.98 40.9805C147.707 40.8034 147.379 40.7148 146.996 40.7148C146.616 40.7148 146.284 40.8073 146 40.9922C145.716 41.1771 145.496 41.4336 145.34 41.7617C145.186 42.0898 145.109 42.4714 145.109 42.9062V42.9102C145.109 43.3503 145.186 43.7331 145.34 44.0586C145.496 44.3815 145.717 44.6315 146.004 44.8086C146.293 44.9857 146.638 45.0742 147.039 45.0742ZM151.336 45.0742C151.656 45.0742 151.943 45.0208 152.195 44.9141C152.451 44.8073 152.652 44.6589 152.801 44.4688C152.949 44.276 153.023 44.0547 153.023 43.8047V43.7969C153.023 43.4948 152.926 43.2539 152.73 43.0742C152.538 42.8945 152.243 42.7565 151.848 42.6602L151.199 42.5039C150.952 42.444 150.772 42.3672 150.66 42.2734C150.548 42.1797 150.492 42.0612 150.492 41.918V41.9102C150.492 41.7852 150.53 41.6758 150.605 41.582C150.681 41.4883 150.784 41.4154 150.914 41.3633C151.044 41.3086 151.193 41.2812 151.359 41.2812C151.615 41.2812 151.822 41.3333 151.98 41.4375C152.139 41.5417 152.241 41.6771 152.285 41.8438H152.953C152.922 41.6146 152.836 41.4154 152.695 41.2461C152.557 41.0768 152.374 40.9466 152.145 40.8555C151.918 40.7617 151.658 40.7148 151.363 40.7148C151.066 40.7148 150.799 40.7682 150.562 40.875C150.326 40.9818 150.138 41.1276 150 41.3125C149.865 41.4974 149.797 41.707 149.797 41.9414V41.9453C149.797 42.2474 149.889 42.4896 150.074 42.6719C150.259 42.8516 150.548 42.9883 150.941 43.082L151.594 43.2383C151.854 43.3008 152.042 43.3828 152.156 43.4844C152.271 43.5833 152.328 43.7044 152.328 43.8477V43.8555C152.328 43.9831 152.286 44.0964 152.203 44.1953C152.12 44.2917 152.005 44.3685 151.859 44.4258C151.716 44.4805 151.549 44.5078 151.359 44.5078C151.091 44.5078 150.874 44.4544 150.707 44.3477C150.54 44.2409 150.428 44.1003 150.371 43.9258H149.676C149.702 44.1576 149.786 44.3594 149.93 44.5312C150.076 44.7031 150.268 44.8372 150.508 44.9336C150.747 45.0273 151.023 45.0742 151.336 45.0742ZM155.445 45.0742C155.766 45.0742 156.052 45.0208 156.305 44.9141C156.56 44.8073 156.762 44.6589 156.91 44.4688C157.059 44.276 157.133 44.0547 157.133 43.8047V43.7969C157.133 43.4948 157.035 43.2539 156.84 43.0742C156.647 42.8945 156.353 42.7565 155.957 42.6602L155.309 42.5039C155.061 42.444 154.882 42.3672 154.77 42.2734C154.658 42.1797 154.602 42.0612 154.602 41.918V41.9102C154.602 41.7852 154.639 41.6758 154.715 41.582C154.79 41.4883 154.893 41.4154 155.023 41.3633C155.154 41.3086 155.302 41.2812 155.469 41.2812C155.724 41.2812 155.931 41.3333 156.09 41.4375C156.249 41.5417 156.35 41.6771 156.395 41.8438H157.062C157.031 41.6146 156.945 41.4154 156.805 41.2461C156.667 41.0768 156.483 40.9466 156.254 40.8555C156.027 40.7617 155.767 40.7148 155.473 40.7148C155.176 40.7148 154.909 40.7682 154.672 40.875C154.435 40.9818 154.247 41.1276 154.109 41.3125C153.974 41.4974 153.906 41.707 153.906 41.9414V41.9453C153.906 42.2474 153.999 42.4896 154.184 42.6719C154.368 42.8516 154.658 42.9883 155.051 43.082L155.703 43.2383C155.964 43.3008 156.151 43.3828 156.266 43.4844C156.38 43.5833 156.438 43.7044 156.438 43.8477V43.8555C156.438 43.9831 156.396 44.0964 156.312 44.1953C156.229 44.2917 156.115 44.3685 155.969 44.4258C155.826 44.4805 155.659 44.5078 155.469 44.5078C155.201 44.5078 154.983 44.4544 154.816 44.3477C154.65 44.2409 154.538 44.1003 154.48 43.9258H153.785C153.811 44.1576 153.896 44.3594 154.039 44.5312C154.185 44.7031 154.378 44.8372 154.617 44.9336C154.857 45.0273 155.133 45.0742 155.445 45.0742Z" fill="white"/>
<defs>
<linearGradient id="paint0_linear_1_301" x1="0.000453582" y1="22.4996" x2="45.0466" y2="22.4996" gradientUnits="userSpaceOnUse">
<stop stop-color="#47D2E0"/>
<stop offset="1" stop-color="#6045BA"/>
</linearGradient>
<linearGradient id="paint1_linear_1_301" x1="178.635" y1="25.4107" x2="204.585" y2="25.4107" gradientUnits="userSpaceOnUse">
<stop stop-color="#6045BA"/>
<stop offset="1" stop-color="#47D2E0"/>
</linearGradient>
</defs>
</svg>
